#!OML:ASF F:\VICON\USERDATA\INSTALL\rory3\rory3.ASF
:FULLY-SPECIFIED
:DEGREES
392
root 3.06599 17.9186 10.8459 -186.756 43.195 175.65
lowerback 14.4403 1.18471 -1.69794
upperback 2.01949 1.40289 -1.28142
thorax -5.96227 0.788371 -0.67162
lowerneck -19.9427 12.6026 -1.83344
upperneck 39.0057 25.9752 -2.51362
head 18.0587 10.7159 4.80787
rclavicle -3.71168e-014 -1.86361e-016
rhumerus -41.633 -19.3099 -71.6002
rradius 30.9993
rwrist 0.582086
rhand -15.226 5.4578
rfingers 7.12502
rthumb 10.9468 -24.2368
lclavicle -3.71168e-014 -1.86361e-016
lhumerus -13.6882 -5.19922 86.2221
lradius 34.4651
lwrist -2.90383
lhand -16.8613 26.8561
lfingers 7.12502
lthumb 9.36917 56.6279
rfemur -24.6024 -0.74092 9.34837
rtibia 39.7524
rfoot -8.09976 7.09374
rtoes -21.4575
lfemur 2.34699 -8.95527 -30.9371
ltibia 27.8915
lfoot -6.15275 -14.4967
ltoes 7.56821
393
root 2.98531 17.9368 10.903 -186.779 43.6368 175.845
lowerback 14.4257 1.32087 -1.42454
upperback 2.09458 1.62469 -1.4295
thorax -5.86339 0.89225 -1.02334
lowerneck -19.8949 12.7589 -1.756
upperneck 39.0182 26.2805 -2.56218
head 18.0805 10.8428 4.83897
rclavicle -7.97002e-015 -3.27995e-015
rhumerus -42.0652 -19.5561 -71.5133
rradius 30.3033
rwrist 1.64847
rhand -14.5637 6.00247
rfingers 7.12502
rthumb 11.5855 -23.6573
lclavicle -7.97002e-015 -3.27995e-015
lhumerus -13.4823 -5.11683 86.1332
lradius 35.1832
lwrist -2.94471
lhand -16.7175 26.8509
lfingers 7.12502
lthumb 9.50794 56.6164
rfemur -24.548 -0.902587 9.62386
rtibia 41.5182
rfoot -8.12967 6.06235
rtoes -18.0931
lfemur 2.04097 -8.76858 -30.8413
ltibia 28.089
lfoot -6.35414 -14.1508
ltoes 4.06356
394
root 2.9015 17.9578 10.9636 -186.619 43.8236 176.198
lowerback 14.4597 1.37965 -1.10197
upperback 2.11786 1.74981 -1.50722
thorax -5.84503 0.947064 -1.31215
lowerneck -19.9687 12.8945 -1.79278
upperneck 39.1278 26.5718 -2.48549
head 18.1367 10.9532 4.95034
rclavicle -7.24943e-014 -7.95139e-016
rhumerus -42.42 -19.8838 -71.3344
rradius 29.5204
rwrist 2.65823
rhand -14.0651 6.51711
rfingers 7.12502
rthumb 12.0663 -23.115
lclavicle -7.24943e-014 -7.95139e-016
lhumerus -13.4805 -4.83648 86.1639
lradius 36.0712
lwrist -3.04268
lhand -16.7048 26.6007
lfingers 7.12502
lthumb 9.52018 56.3656
rfemur -24.4638 -1.26577 10.0252
rtibia 43.3288
rfoot -8.29997 4.98005
rtoes -15.8541
lfemur 1.65434 -9.11518 -30.6574
ltibia 28.2889
lfoot -6.03568 -13.8071
ltoes 3.96984
395
root 2.81866 17.967 11.0264 -186.668 43.9486 176.203
lowerback 14.4461 1.46024 -1.0774
upperback 2.13451 1.85675 -1.64005
thorax -5.81331 0.999602 -1.4861
lowerneck -19.9843 12.9998 -1.79338
upperneck 39.1281 26.8003 -2.5137
head 18.1487 11.0396 4.98815
rclavicle 7.57867e-015 8.74653e-015
rhumerus -42.8042 -20.2241 -71.1282
rradius 28.9192
rwrist 3.61319
rhand -13.5877 6.43833
rfingers 7.12502
rthumb 12.5266 -23.1662
lclavicle 7.57867e-015 8.74653e-015
lhumerus -13.4271 -4.76563 86.1799
lradius 36.8974
lwrist -2.75856
lhand -16.625 26.7292
lfingers 7.12502
lthumb 9.59722 56.4907
rfemur -24.3903 -1.78592 10.1988
rtibia 45.1558
rfoot -8.47257 3.81871
rtoes -16.3842
lfemur 1.17102 -9.24935 -30.6616
ltibia 28.58
lfoot -5.73149 -13.8078
ltoes 4.20911
396
root 2.73867 17.9738 11.0909 -186.785 44.0884 176.132
lowerback 14.4391 1.56463 -1.15515
upperback 2.14103 1.97962 -1.76242
thorax -5.79874 1.06208 -1.59472
lowerneck -19.9173 13.094 -1.77419
upperneck 39.1294 27.0263 -2.56828
head 18.1521 11.1321 5.00493
rclavicle -5.27028e-014 -7.95139e-015
rhumerus -43.2703 -20.5642 -70.8704
rradius 28.4576
rwrist 4.68038
rhand -13.2191 6.21048
rfingers 7.12502
rthumb 12.882 -23.372
lclavicle -5.27028e-014 -7.95139e-015
lhumerus -13.4195 -4.68077 86.2317
lradius 37.7013
lwrist -2.53527
lhand -16.6095 26.9308
lfingers 7.12502
lthumb 9.61214 56.6916
rfemur -24.3167 -2.48611 10.369
rtibia 46.9837
rfoot -8.53059 2.79571
rtoes -19.1788
lfemur 0.629588 -9.26677 -30.6727
ltibia 28.9656
lfoot -5.58453 -13.9096
ltoes 3.3368
397
root 2.65892 17.9857 11.1519 -186.733 44.299 176.337
lowerback 14.4471 1.66773 -1.0292
upperback 2.1395 2.13239 -1.83878
thorax -5.79475 1.13435 -1.77607
lowerneck -19.8857 13.1934 -1.74603
upperneck 39.2475 27.2476 -2.50035
head 18.2007 11.2304 5.08166
rclavicle -3.76697e-014 8.94531e-015
rhumerus -43.6975 -20.9759 -70.5624
rradius 27.9044
rwrist 5.67496
rhand -12.9133 6.0835
rfingers 7.12502
rthumb 13.1768 -23.4801
lclavicle -3.76697e-014 8.94531e-015
lhumerus -13.5108 -4.58659 86.2956
lradius 38.5569
lwrist -2.2461
lhand -16.7506 27.014
lfingers 7.12502
lthumb 9.47599 56.781
rfemur -24.1423 -3.13194 10.7386
rtibia 48.7645
rfoot -8.50371 2.09996
rtoes -19.5955
lfemur 0.0810727 -9.37866 -30.4622
ltibia 29.3525
lfoot -5.09063 -13.9702
ltoes 4.79022
398
root 2.58266 17.9966 11.2086 -186.703 44.5784 176.51
lowerback 14.3643 1.79641 -0.907968
upperback 2.16918 2.32136 -1.93148
thorax -5.70522 1.22563 -1.97405
lowerneck -19.8221 13.26 -1.70741
upperneck 39.1827 27.4198 -2.61913
head 18.1873 11.2978 5.0554
rclavicle 5.71506e-015 2.16675e-014
rhumerus -44.0219 -21.3586 -70.3338
rradius 27.3245
rwrist 6.23781
rhand -12.8604 5.99237
rfingers 7.12502
rthumb 13.2278 -23.5679
lclavicle 5.71506e-015 2.16675e-014
lhumerus -13.5967 -4.7885 86.3198
lradius 39.391
lwrist -1.64276
lhand -17.5679 26.724
lfingers 7.12502
lthumb 8.68734 56.5253
rfemur -23.8153 -3.51169 11.0225
rtibia 50.4693
rfoot -8.3932 1.57881
rtoes -17.3012
lfemur -0.407614 -9.34131 -30.2598
ltibia 29.6715
lfoot -4.44451 -14.2254
ltoes 7.05159
399
root 2.51006 18.0117 11.2646 -186.744 44.8963 176.66
lowerback 14.3328 1.94024 -0.826412
upperback 2.20697 2.52512 -2.0147
thorax -5.6355 1.32567 -2.14383
lowerneck -19.8452 13.2978 -1.79566
upperneck 39.1542 27.5504 -2.64197
head 18.1681 11.3389 5.08234
rclavicle -1.15245e-013 3.97569e-015
rhumerus -44.3051 -21.3953 -70.3123
rradius 26.9151
rwrist 6.34
rhand -12.8522 5.90148
rfingers 7.12502
rthumb 13.2356 -23.6583
lclavicle -1.15245e-013 3.97569e-015
lhumerus -13.7296 -4.95958 86.3237
lradius 40.1897
lwrist -1.06861
lhand -18.6537 25.7856
lfingers 7.12502
lthumb 7.63946 55.6276
rfemur -23.3776 -3.899 11.2899
rtibia 52.1005
rfoot -8.32071 1.25903
rtoes -16.253
lfemur -0.732297 -9.27266 -30.1006
ltibia 29.8939
lfoot -4.11642 -14.2796
ltoes 7.51238
400
root 2.4366 18.0303 11.3131 -186.827 45.3234 176.895
lowerback 14.3902 2.08595 -0.597738
upperback 2.24942 2.75323 -2.09032
thorax -5.60129 1.43499 -2.39688
lowerneck -19.8425 13.3573 -1.91126
upperneck 39.1503 27.6914 -2.5856
head 18.1304 11.3942 5.1415
rclavicle -6.87298e-014 5.96354e-015
rhumerus -44.637 -21.5214 -70.2382
rradius 26.5945
rwrist 6.62326
rhand -12.8004 5.735
rfingers 7.12502
rthumb 13.2856 -23.8215
lclavicle -6.87298e-014 5.96354e-015
lhumerus -13.9204 -4.80709 86.3593
lradius 40.8862
lwrist -0.842871
lhand -18.9204 25.2962
lfingers 7.12502
lthumb 7.38196 55.1474
rfemur -22.829 -4.35307 11.6205
rtibia 53.6887
rfoot -8.28503 1.06285
rtoes -16.2908
lfemur -0.856949 -9.15862 -29.9415
ltibia 29.9879
lfoot -3.90341 -14.0455
ltoes 6.57678
